<svg width="21" height="21" viewBox="0 0 21 21" fill="none" xmlns="http://www.w3.org/2000/svg">
<g id="Technologies logos" clip-path="url(#clip0_2802_621)">
<path id="Vector" d="M10.6532 11.9733C10.3144 11.9733 9.98942 11.8387 9.74982 11.5991C9.51022 11.3595 9.37562 11.0345 9.37562 10.6957C9.37562 10.3568 9.51022 10.0318 9.74982 9.79225C9.98942 9.55265 10.3144 9.41804 10.6532 9.41804C10.9921 9.41804 11.317 9.55265 11.5566 9.79225C11.7962 10.0318 11.9308 10.3568 11.9308 10.6957C11.9308 11.0345 11.7962 11.3595 11.5566 11.5991C11.317 11.8387 10.9921 11.9733 10.6532 11.9733ZM10.2035 14.5234C10.3526 14.7022 10.5025 14.876 10.6532 15.0421C10.804 14.876 10.9539 14.7031 11.1029 14.5234C10.8032 14.5297 10.5033 14.5297 10.2035 14.5234ZM8.50429 14.4169C7.85021 14.3488 7.20045 14.2442 6.55806 14.1035C6.49418 14.4016 6.44563 14.6912 6.41327 14.9688C6.25144 16.3171 6.47715 17.1365 6.8204 17.3341C7.16365 17.5326 7.98558 17.3179 9.07325 16.5045C9.29726 16.3367 9.52297 16.1502 9.74953 15.9466C9.3062 15.4604 8.89047 14.9497 8.50429 14.4169ZM14.7484 14.1035C14.1377 14.2397 13.4853 14.3454 12.8022 14.4169C12.416 14.9497 12.0003 15.4604 11.5569 15.9466C11.7835 16.151 12.0092 16.3367 12.2332 16.5045C13.3209 17.3179 14.1428 17.5326 14.4861 17.3341C14.8293 17.1365 15.0542 16.3171 14.894 14.9688C14.8589 14.6783 14.8106 14.3896 14.7492 14.1035H14.7484ZM15.9834 13.7738C16.4749 16.0216 16.2168 17.8111 15.1249 18.4414C14.0329 19.0717 12.3542 18.4005 10.6532 16.8512C8.95231 18.4005 7.27353 19.0708 6.1816 18.4405C5.08966 17.8102 4.83159 16.0216 5.32219 13.773C3.12981 13.0754 1.70996 11.9562 1.70996 10.6957C1.70996 9.43508 3.12981 8.31674 5.32219 7.61746C4.83159 5.36972 5.08966 3.58022 6.1816 2.94993C7.27353 2.31964 8.95231 2.99081 10.6532 4.54013C12.3542 2.99081 14.0329 2.32049 15.1249 2.95078C16.2168 3.58107 16.4749 5.36972 15.9843 7.61832C18.1766 8.31589 19.5965 9.43508 19.5965 10.6957C19.5965 11.9562 18.1766 13.0746 15.9843 13.7738H15.9834ZM9.74868 5.44468C9.53208 5.24861 9.3067 5.06246 9.07325 4.88679C7.98558 4.07337 7.16365 3.85874 6.8204 4.05719C6.47715 4.25479 6.25229 5.07417 6.41242 6.42247C6.44649 6.70099 6.49418 6.98973 6.55721 7.28784C7.19987 7.14708 7.84992 7.04243 8.50429 6.9744C8.90887 6.41821 9.32622 5.90632 9.74953 5.44468H9.74868ZM12.8022 6.9744C13.4853 7.04595 14.1377 7.15241 14.7484 7.28784C14.8123 6.98973 14.8608 6.70014 14.8932 6.42247C15.055 5.07417 14.8293 4.25479 14.4861 4.05719C14.1428 3.85874 13.3209 4.07337 12.2332 4.88679C11.9995 5.06244 11.7738 5.24859 11.5569 5.44468C11.9802 5.90632 12.3976 6.41821 12.8022 6.9744ZM11.1029 6.86793C10.9539 6.68907 10.804 6.51531 10.6532 6.34922C10.5025 6.51531 10.3526 6.68822 10.2035 6.86793C10.5033 6.86157 10.8032 6.86157 11.1029 6.86793ZM7.56312 12.9988C7.40772 12.7425 7.25778 12.4829 7.1134 12.2203C7.03248 12.4392 6.95753 12.6547 6.88939 12.8684C7.10829 12.9161 7.33315 12.9596 7.56227 12.9988H7.56312ZM9.20868 13.1981C10.1704 13.2695 11.1361 13.2695 12.0978 13.1981C12.6405 12.4008 13.1234 11.5644 13.5423 10.6957C13.1234 9.82694 12.6405 8.99051 12.0978 8.19324C11.1361 8.12181 10.1704 8.12181 9.20868 8.19324C8.66595 8.99051 8.1831 9.82694 7.76413 10.6957C8.1831 11.5644 8.66595 12.4008 9.20868 13.1981ZM14.1931 9.17104C14.274 8.95214 14.3489 8.73665 14.4171 8.52286C14.1938 8.47441 13.9694 8.43096 13.7442 8.39255C13.8993 8.64884 14.049 8.9084 14.1931 9.17104ZM5.65352 8.85334C5.36393 8.94703 5.08966 9.04924 4.83244 9.15996C3.58464 9.69486 2.98757 10.2996 2.98757 10.6957C2.98757 11.0917 3.58379 11.6964 4.83244 12.2313C5.08966 12.3421 5.36393 12.4443 5.65352 12.538C5.8426 11.9417 6.07683 11.3234 6.3562 10.6957C6.08775 10.0952 5.85316 9.48008 5.65352 8.85334ZM6.88854 8.52286C6.95753 8.7358 7.03248 8.95214 7.1134 9.17019C7.25779 8.90782 7.40773 8.64855 7.56312 8.39255C7.33315 8.43173 7.10829 8.47517 6.88939 8.52286H6.88854ZM15.6529 12.538C15.9425 12.4443 16.2168 12.3421 16.474 12.2313C17.7218 11.6964 18.3189 11.0917 18.3189 10.6957C18.3189 10.2996 17.7227 9.69486 16.474 9.15996C16.2051 9.04541 15.9311 8.94309 15.6529 8.85334C15.4639 9.44956 15.2296 10.0679 14.9503 10.6957C15.2296 11.3234 15.4639 11.9409 15.6529 12.538ZM14.4179 12.8684C14.3489 12.6555 14.274 12.4392 14.1931 12.2211C14.0487 12.4835 13.8987 12.7428 13.7433 12.9988C13.9733 12.9596 14.1982 12.9161 14.4171 12.8684H14.4179Z" fill="#011221"/>
</g>
<defs>
<clipPath id="clip0_2802_621">
<rect width="20.4418" height="20.4418" fill="white" transform="translate(0.432129 0.474854)"/>
</clipPath>
</defs>
</svg>
